<svg width="535" height="434" viewBox="0 0 535 434" fill="none" xmlns="http://www.w3.org/2000/svg">
<path d="M165.679 286.156L126.881 222.019L80.6584 144.888L0 7.61103L96.3446 7.42539L170.227 129.759L262.024 279.473L287.456 318.457C300.357 304.72 319.663 267.314 308.897 250.143C304.441 245.317 299.429 241.79 294.417 237.613C266.757 214.965 241.14 195.752 227.403 161.502C211.809 122.519 218.028 78.5236 244.945 45.9447C268.243 17.7281 302.678 0.464087 339.898 0.37127L535 0C529.524 14.2939 523.212 26.3602 514.023 37.4055C495.553 60.7026 469.007 74.9037 438.934 74.9965L341.011 75.3678C328.945 75.3678 318.271 79.823 310.01 88.1766C298.779 99.4075 296.737 115.743 304.07 129.759C307.597 136.535 312.516 141.918 317.9 147.58L368.3 200.022C404.406 237.613 393.546 299.8 358.925 334.421C346.58 333.772 335.442 336.092 324.026 339.898C308.247 346.209 294.974 355.584 282.629 367.372C267.407 381.573 255.434 398.187 244.853 416.565L165.679 286.156Z" fill="#D2D800"/>
<path d="M255.673 433.586C269.874 405.555 289.737 378.267 318.51 364.901C327.421 360.724 336.517 358.218 346.356 358.125L378.192 357.847C401.582 357.661 420.981 343.089 431.191 322.019C442.7 298.351 440.194 271.341 427.756 248.137C420.238 234.028 411.049 221.869 400.004 210.081L353.595 160.424C369.281 160.424 384.039 159.589 399.726 160.424C448.826 163.116 490.594 194.766 508.786 239.969C516.676 259.646 519.553 279.88 518.439 300.95C514.819 373.347 456.251 432.936 383.39 433.122L255.58 433.493L255.673 433.586Z" fill="#E9E8E8"/>
</svg>
